<svg width="741" height="696" viewBox="0 0 741 696" fill="none" xmlns="http://www.w3.org/2000/svg">
<ellipse cx="370.5" cy="348" rx="370.5" ry="348" fill="#21CC69"/>
<path d="M551.966 323.097L505.966 235.598C501.873 227.809 494.253 223 485.999 223H451.499V198C451.499 184.194 441.201 173 428.499 173H313.5C300.799 173 290.501 184.194 290.501 198V223H256.001C247.747 223 240.127 227.809 236.033 235.598L190.034 323.097C185.963 330.836 185.991 340.339 190.107 348.049C194.223 355.757 201.804 360.5 210.002 360.5H244.502V498C244.502 511.806 254.8 523 267.501 523H382.501V398H451.5V523H474.5C487.201 523 497.5 511.806 497.5 498V360.5H531.999C540.197 360.5 547.778 355.758 551.894 348.049C556.009 340.339 556.037 330.836 551.966 323.097ZM348 460.499H290.501V397.999H348V460.499Z" fill="white"/>
</svg>
